<mxfile host="Electron" agent="Mozilla/5.0 (Macintosh; Intel Mac OS X 10_15_7) AppleWebKit/537.36 (KHTML, like Gecko) draw.io/26.0.16 Chrome/132.0.6834.196 Electron/34.2.0 Safari/537.36" version="26.0.16" pages="2">
  <diagram id="5SLFwXkFD18ImDrWr6wF" name="Get Site">
    <mxGraphModel dx="1026" dy="683" grid="1" gridSize="10" guides="1" tooltips="1" connect="1" arrows="1" fold="1" page="1" pageScale="1" pageWidth="827" pageHeight="1169" math="0" shadow="0">
      <root>
        <mxCell id="0" />
        <mxCell id="1" parent="0" />
        <mxCell id="XnKkdjDVTW-mnHKy5Irg-1" value="Frontend" style="rounded=0;whiteSpace=wrap;html=1;verticalAlign=bottom;fontStyle=1" parent="1" vertex="1">
          <mxGeometry x="100" y="360" width="170" height="120" as="geometry" />
        </mxCell>
        <mxCell id="-0zRZqrUNNqaHNUAR9Si-4" style="edgeStyle=orthogonalEdgeStyle;rounded=0;orthogonalLoop=1;jettySize=auto;html=1;entryX=0.5;entryY=0;entryDx=0;entryDy=0;" parent="1" source="svMy6eUCQF9q8eJB3HId-1" target="-0zRZqrUNNqaHNUAR9Si-1" edge="1">
          <mxGeometry relative="1" as="geometry" />
        </mxCell>
        <mxCell id="svMy6eUCQF9q8eJB3HId-1" value="Backend" style="rounded=0;whiteSpace=wrap;html=1;verticalAlign=bottom;fontStyle=1" parent="1" vertex="1">
          <mxGeometry x="470" y="360" width="170" height="120" as="geometry" />
        </mxCell>
        <mxCell id="svMy6eUCQF9q8eJB3HId-2" value="Database" style="rounded=0;whiteSpace=wrap;html=1;verticalAlign=bottom;fontStyle=1" parent="1" vertex="1">
          <mxGeometry x="470" y="580" width="170" height="120" as="geometry" />
        </mxCell>
        <mxCell id="qYfR3jvcU6L0UgXgsh5a-1" value="4200" style="rounded=0;whiteSpace=wrap;html=1;" parent="1" vertex="1">
          <mxGeometry x="145" y="330" width="80" height="30" as="geometry" />
        </mxCell>
        <mxCell id="qYfR3jvcU6L0UgXgsh5a-2" value="80" style="rounded=0;whiteSpace=wrap;html=1;" parent="1" vertex="1">
          <mxGeometry x="145" y="360" width="80" height="30" as="geometry" />
        </mxCell>
        <mxCell id="qYfR3jvcU6L0UgXgsh5a-3" value="8080" style="rounded=0;whiteSpace=wrap;html=1;" parent="1" vertex="1">
          <mxGeometry x="515" y="330" width="80" height="30" as="geometry" />
        </mxCell>
        <mxCell id="qYfR3jvcU6L0UgXgsh5a-4" value="8080" style="rounded=0;whiteSpace=wrap;html=1;" parent="1" vertex="1">
          <mxGeometry x="515" y="360" width="80" height="30" as="geometry" />
        </mxCell>
        <mxCell id="-0zRZqrUNNqaHNUAR9Si-1" value="5432" style="rounded=0;whiteSpace=wrap;html=1;" parent="1" vertex="1">
          <mxGeometry x="515" y="550" width="80" height="30" as="geometry" />
        </mxCell>
        <mxCell id="-0zRZqrUNNqaHNUAR9Si-2" value="5432" style="rounded=0;whiteSpace=wrap;html=1;" parent="1" vertex="1">
          <mxGeometry x="515" y="580" width="80" height="30" as="geometry" />
        </mxCell>
        <mxCell id="-0zRZqrUNNqaHNUAR9Si-5" value="Browser" style="rounded=0;whiteSpace=wrap;html=1;verticalAlign=top;fontStyle=1" parent="1" vertex="1">
          <mxGeometry x="290" y="90" width="170" height="120" as="geometry" />
        </mxCell>
        <mxCell id="-0zRZqrUNNqaHNUAR9Si-9" style="edgeStyle=orthogonalEdgeStyle;rounded=0;orthogonalLoop=1;jettySize=auto;html=1;entryX=0.5;entryY=0;entryDx=0;entryDy=0;" parent="1" target="qYfR3jvcU6L0UgXgsh5a-1" edge="1">
          <mxGeometry relative="1" as="geometry">
            <mxPoint x="290" y="160" as="sourcePoint" />
          </mxGeometry>
        </mxCell>
        <mxCell id="-0zRZqrUNNqaHNUAR9Si-6" value="Angular" style="rounded=0;whiteSpace=wrap;html=1;verticalAlign=middle;fillColor=#ffe6cc;strokeColor=#d79b00;" parent="1" vertex="1">
          <mxGeometry x="320" y="130" width="110" height="60" as="geometry" />
        </mxCell>
        <mxCell id="-0zRZqrUNNqaHNUAR9Si-8" style="edgeStyle=orthogonalEdgeStyle;rounded=0;orthogonalLoop=1;jettySize=auto;html=1;entryX=0.5;entryY=1;entryDx=0;entryDy=0;strokeWidth=5;dashed=1;fillColor=#f8cecc;strokeColor=light-dark(#ffe6cc, #9d4545);" parent="1" source="-0zRZqrUNNqaHNUAR9Si-7" target="-0zRZqrUNNqaHNUAR9Si-6" edge="1">
          <mxGeometry relative="1" as="geometry" />
        </mxCell>
        <mxCell id="-0zRZqrUNNqaHNUAR9Si-7" value="Angular" style="rounded=0;whiteSpace=wrap;html=1;verticalAlign=middle;fillColor=#ffe6cc;strokeColor=#d79b00;" parent="1" vertex="1">
          <mxGeometry x="130" y="400" width="110" height="60" as="geometry" />
        </mxCell>
        <mxCell id="-0zRZqrUNNqaHNUAR9Si-10" value="http://localhost:4200" style="text;html=1;align=left;verticalAlign=middle;whiteSpace=wrap;rounded=0;fontStyle=2" parent="1" vertex="1">
          <mxGeometry x="190" y="270" width="120" height="30" as="geometry" />
        </mxCell>
        <mxCell id="-0zRZqrUNNqaHNUAR9Si-13" value="&lt;b&gt;IHM&lt;/b&gt;" style="text;html=1;align=center;verticalAlign=middle;whiteSpace=wrap;rounded=0;" parent="1" vertex="1">
          <mxGeometry x="200" y="160" width="60" height="30" as="geometry" />
        </mxCell>
        <mxCell id="-0zRZqrUNNqaHNUAR9Si-17" value="" style="image;sketch=0;aspect=fixed;html=1;points=[];align=center;fontSize=12;image=img/lib/mscae/Docker.svg;" parent="1" vertex="1">
          <mxGeometry x="610" y="564" width="50" height="41" as="geometry" />
        </mxCell>
        <mxCell id="-0zRZqrUNNqaHNUAR9Si-18" value="" style="image;sketch=0;aspect=fixed;html=1;points=[];align=center;fontSize=12;image=img/lib/mscae/Docker.svg;" parent="1" vertex="1">
          <mxGeometry x="240" y="340" width="50" height="41" as="geometry" />
        </mxCell>
        <mxCell id="-0zRZqrUNNqaHNUAR9Si-19" value="" style="image;sketch=0;aspect=fixed;html=1;points=[];align=center;fontSize=12;image=img/lib/mscae/Docker.svg;" parent="1" vertex="1">
          <mxGeometry x="610" y="349" width="50" height="41" as="geometry" />
        </mxCell>
        <mxCell id="-0zRZqrUNNqaHNUAR9Si-20" value="" style="image;aspect=fixed;html=1;points=[];align=center;fontSize=12;image=img/lib/azure2/databases/Azure_Database_PostgreSQL_Server.svg;" parent="1" vertex="1">
          <mxGeometry x="531" y="620" width="48" height="64" as="geometry" />
        </mxCell>
        <mxCell id="-0zRZqrUNNqaHNUAR9Si-21" value="" style="pointerEvents=1;shadow=0;dashed=0;html=1;strokeColor=none;fillColor=#4495D1;labelPosition=center;verticalLabelPosition=bottom;verticalAlign=top;align=center;outlineConnect=0;shape=mxgraph.veeam.2d.workstation;" parent="1" vertex="1">
          <mxGeometry x="423.6" y="70" width="56.4" height="31.2" as="geometry" />
        </mxCell>
        <mxCell id="-0zRZqrUNNqaHNUAR9Si-22" value="&lt;b&gt;1&lt;/b&gt;" style="ellipse;whiteSpace=wrap;html=1;aspect=fixed;fillColor=#008a00;strokeColor=none;fontColor=#ffffff;" parent="1" vertex="1">
          <mxGeometry x="160" y="255" width="20" height="20" as="geometry" />
        </mxCell>
        <mxCell id="-0zRZqrUNNqaHNUAR9Si-23" value="&lt;b&gt;2&lt;/b&gt;" style="ellipse;whiteSpace=wrap;html=1;aspect=fixed;fillColor=#008a00;strokeColor=none;fontColor=#ffffff;" parent="1" vertex="1">
          <mxGeometry x="346" y="255" width="20" height="20" as="geometry" />
        </mxCell>
        <mxCell id="-0zRZqrUNNqaHNUAR9Si-26" value="Récupérer ressources statiques" style="text;html=1;align=left;verticalAlign=middle;whiteSpace=wrap;rounded=0;" parent="1" vertex="1">
          <mxGeometry x="190" y="245" width="120" height="30" as="geometry" />
        </mxCell>
        <mxCell id="-0zRZqrUNNqaHNUAR9Si-27" value="Récupération du site angular" style="text;html=1;align=left;verticalAlign=middle;whiteSpace=wrap;rounded=0;labelBackgroundColor=none;" parent="1" vertex="1">
          <mxGeometry x="385" y="250" width="85" height="30" as="geometry" />
        </mxCell>
        <mxCell id="-0zRZqrUNNqaHNUAR9Si-29" value="SpringBoot" style="rounded=0;whiteSpace=wrap;html=1;verticalAlign=middle;fillColor=#d5e8d4;strokeColor=#82b366;" parent="1" vertex="1">
          <mxGeometry x="500" y="400" width="110" height="60" as="geometry" />
        </mxCell>
      </root>
    </mxGraphModel>
  </diagram>
  <diagram name="CORS resolution" id="hcrUjPs7Zx1z17RD2Ju_">
    <mxGraphModel dx="855" dy="569" grid="1" gridSize="10" guides="1" tooltips="1" connect="1" arrows="1" fold="1" page="1" pageScale="1" pageWidth="827" pageHeight="1169" math="0" shadow="0">
      <root>
        <mxCell id="sD_uTew6S_SOSZNt0BSz-0" />
        <mxCell id="sD_uTew6S_SOSZNt0BSz-1" parent="sD_uTew6S_SOSZNt0BSz-0" />
        <mxCell id="sD_uTew6S_SOSZNt0BSz-2" value="Frontend" style="rounded=0;whiteSpace=wrap;html=1;verticalAlign=bottom;fontStyle=1;fillColor=#dae8fc;strokeColor=#6c8ebf;fillOpacity=50;" parent="sD_uTew6S_SOSZNt0BSz-1" vertex="1">
          <mxGeometry x="70" y="360" width="170" height="220" as="geometry" />
        </mxCell>
        <mxCell id="fL3wdo_UxPj56Ii--WOI-2" value="NGinX" style="rounded=0;whiteSpace=wrap;html=1;verticalAlign=bottom;fontStyle=1" parent="sD_uTew6S_SOSZNt0BSz-1" vertex="1">
          <mxGeometry x="90" y="400" width="130" height="150" as="geometry" />
        </mxCell>
        <mxCell id="sD_uTew6S_SOSZNt0BSz-3" style="edgeStyle=orthogonalEdgeStyle;rounded=0;orthogonalLoop=1;jettySize=auto;html=1;entryX=0.5;entryY=0;entryDx=0;entryDy=0;" parent="sD_uTew6S_SOSZNt0BSz-1" source="sD_uTew6S_SOSZNt0BSz-4" target="sD_uTew6S_SOSZNt0BSz-10" edge="1">
          <mxGeometry relative="1" as="geometry" />
        </mxCell>
        <mxCell id="sD_uTew6S_SOSZNt0BSz-4" value="Backend" style="rounded=0;whiteSpace=wrap;html=1;verticalAlign=bottom;fontStyle=1;fillColor=#dae8fc;strokeColor=#6c8ebf;fillOpacity=50;" parent="sD_uTew6S_SOSZNt0BSz-1" vertex="1">
          <mxGeometry x="470" y="515" width="170" height="120" as="geometry" />
        </mxCell>
        <mxCell id="sD_uTew6S_SOSZNt0BSz-5" value="Database" style="rounded=0;whiteSpace=wrap;html=1;verticalAlign=bottom;fontStyle=1;fillColor=#dae8fc;strokeColor=#6c8ebf;fillOpacity=50;" parent="sD_uTew6S_SOSZNt0BSz-1" vertex="1">
          <mxGeometry x="470" y="735" width="170" height="120" as="geometry" />
        </mxCell>
        <mxCell id="sD_uTew6S_SOSZNt0BSz-6" value="4200" style="rounded=0;whiteSpace=wrap;html=1;" parent="sD_uTew6S_SOSZNt0BSz-1" vertex="1">
          <mxGeometry x="115" y="330" width="80" height="30" as="geometry" />
        </mxCell>
        <mxCell id="sD_uTew6S_SOSZNt0BSz-7" value="80" style="rounded=0;whiteSpace=wrap;html=1;" parent="sD_uTew6S_SOSZNt0BSz-1" vertex="1">
          <mxGeometry x="115" y="360" width="80" height="30" as="geometry" />
        </mxCell>
        <mxCell id="sD_uTew6S_SOSZNt0BSz-8" value="8080" style="rounded=0;whiteSpace=wrap;html=1;" parent="sD_uTew6S_SOSZNt0BSz-1" vertex="1">
          <mxGeometry x="515" y="485" width="80" height="30" as="geometry" />
        </mxCell>
        <mxCell id="sD_uTew6S_SOSZNt0BSz-9" value="8080" style="rounded=0;whiteSpace=wrap;html=1;" parent="sD_uTew6S_SOSZNt0BSz-1" vertex="1">
          <mxGeometry x="515" y="515" width="80" height="30" as="geometry" />
        </mxCell>
        <mxCell id="sD_uTew6S_SOSZNt0BSz-10" value="5432" style="rounded=0;whiteSpace=wrap;html=1;" parent="sD_uTew6S_SOSZNt0BSz-1" vertex="1">
          <mxGeometry x="515" y="705" width="80" height="30" as="geometry" />
        </mxCell>
        <mxCell id="sD_uTew6S_SOSZNt0BSz-11" value="5432" style="rounded=0;whiteSpace=wrap;html=1;" parent="sD_uTew6S_SOSZNt0BSz-1" vertex="1">
          <mxGeometry x="515" y="735" width="80" height="30" as="geometry" />
        </mxCell>
        <mxCell id="sD_uTew6S_SOSZNt0BSz-12" value="Browser" style="rounded=0;whiteSpace=wrap;html=1;verticalAlign=top;fontStyle=1" parent="sD_uTew6S_SOSZNt0BSz-1" vertex="1">
          <mxGeometry x="290" y="90" width="170" height="120" as="geometry" />
        </mxCell>
        <mxCell id="fL3wdo_UxPj56Ii--WOI-0" style="edgeStyle=orthogonalEdgeStyle;rounded=0;orthogonalLoop=1;jettySize=auto;html=1;entryX=0.75;entryY=1;entryDx=0;entryDy=0;endArrow=none;startFill=0;strokeColor=#009900;strokeWidth=5;exitX=0;exitY=0.5;exitDx=0;exitDy=0;" parent="sD_uTew6S_SOSZNt0BSz-1" source="sD_uTew6S_SOSZNt0BSz-15" target="sD_uTew6S_SOSZNt0BSz-7" edge="1">
          <mxGeometry relative="1" as="geometry">
            <Array as="points">
              <mxPoint x="175" y="160" />
            </Array>
          </mxGeometry>
        </mxCell>
        <mxCell id="sD_uTew6S_SOSZNt0BSz-15" value="Angular" style="rounded=0;whiteSpace=wrap;html=1;verticalAlign=middle;fillColor=#f8cecc;strokeColor=#b85450;" parent="sD_uTew6S_SOSZNt0BSz-1" vertex="1">
          <mxGeometry x="320" y="130" width="110" height="60" as="geometry" />
        </mxCell>
        <mxCell id="sD_uTew6S_SOSZNt0BSz-17" value="Angular" style="rounded=0;whiteSpace=wrap;html=1;verticalAlign=middle;fillColor=#f8cecc;strokeColor=#b85450;" parent="sD_uTew6S_SOSZNt0BSz-1" vertex="1">
          <mxGeometry x="100" y="460" width="110" height="60" as="geometry" />
        </mxCell>
        <mxCell id="sD_uTew6S_SOSZNt0BSz-19" value="http://&lt;b&gt;localhost:8080/&lt;/b&gt;api/data" style="text;html=1;align=left;verticalAlign=middle;whiteSpace=wrap;rounded=0;fontStyle=2;fontColor=#FF0000;" parent="sD_uTew6S_SOSZNt0BSz-1" vertex="1">
          <mxGeometry x="610" y="245" width="190" height="30" as="geometry" />
        </mxCell>
        <mxCell id="sD_uTew6S_SOSZNt0BSz-21" value="&lt;b&gt;API&lt;/b&gt;" style="text;html=1;align=left;verticalAlign=middle;whiteSpace=wrap;rounded=0;fontColor=#009900;" parent="sD_uTew6S_SOSZNt0BSz-1" vertex="1">
          <mxGeometry x="310" y="440" width="80" height="30" as="geometry" />
        </mxCell>
        <mxCell id="sD_uTew6S_SOSZNt0BSz-24" value="" style="image;sketch=0;aspect=fixed;html=1;points=[];align=center;fontSize=12;image=img/lib/mscae/Docker.svg;" parent="sD_uTew6S_SOSZNt0BSz-1" vertex="1">
          <mxGeometry x="610" y="719" width="50" height="41" as="geometry" />
        </mxCell>
        <mxCell id="sD_uTew6S_SOSZNt0BSz-25" value="" style="image;sketch=0;aspect=fixed;html=1;points=[];align=center;fontSize=12;image=img/lib/mscae/Docker.svg;" parent="sD_uTew6S_SOSZNt0BSz-1" vertex="1">
          <mxGeometry x="210" y="340" width="50" height="41" as="geometry" />
        </mxCell>
        <mxCell id="sD_uTew6S_SOSZNt0BSz-26" value="" style="image;sketch=0;aspect=fixed;html=1;points=[];align=center;fontSize=12;image=img/lib/mscae/Docker.svg;" parent="sD_uTew6S_SOSZNt0BSz-1" vertex="1">
          <mxGeometry x="610" y="504" width="50" height="41" as="geometry" />
        </mxCell>
        <mxCell id="sD_uTew6S_SOSZNt0BSz-27" value="" style="image;aspect=fixed;html=1;points=[];align=center;fontSize=12;image=img/lib/azure2/databases/Azure_Database_PostgreSQL_Server.svg;" parent="sD_uTew6S_SOSZNt0BSz-1" vertex="1">
          <mxGeometry x="531" y="775" width="48" height="64" as="geometry" />
        </mxCell>
        <mxCell id="sD_uTew6S_SOSZNt0BSz-28" value="" style="pointerEvents=1;shadow=0;dashed=0;html=1;strokeColor=none;fillColor=#4495D1;labelPosition=center;verticalLabelPosition=bottom;verticalAlign=top;align=center;outlineConnect=0;shape=mxgraph.veeam.2d.workstation;" parent="sD_uTew6S_SOSZNt0BSz-1" vertex="1">
          <mxGeometry x="423.6" y="70" width="56.4" height="31.2" as="geometry" />
        </mxCell>
        <mxCell id="sD_uTew6S_SOSZNt0BSz-31" value="&lt;b&gt;1&lt;/b&gt;" style="ellipse;whiteSpace=wrap;html=1;aspect=fixed;fillColor=#008a00;strokeColor=none;fontColor=#ffffff;" parent="sD_uTew6S_SOSZNt0BSz-1" vertex="1">
          <mxGeometry x="150" y="220" width="20" height="20" as="geometry" />
        </mxCell>
        <mxCell id="sD_uTew6S_SOSZNt0BSz-34" value="Invocation API backend&amp;nbsp;&lt;div&gt;via le front&lt;/div&gt;" style="text;html=1;align=left;verticalAlign=middle;whiteSpace=wrap;rounded=0;fontColor=#009900;" parent="sD_uTew6S_SOSZNt0BSz-1" vertex="1">
          <mxGeometry x="180" y="215" width="190" height="30" as="geometry" />
        </mxCell>
        <mxCell id="sD_uTew6S_SOSZNt0BSz-35" value="SpringBoot" style="rounded=0;whiteSpace=wrap;html=1;verticalAlign=middle;fillColor=#d5e8d4;strokeColor=#82b366;" parent="sD_uTew6S_SOSZNt0BSz-1" vertex="1">
          <mxGeometry x="500" y="555" width="110" height="60" as="geometry" />
        </mxCell>
        <mxCell id="fL3wdo_UxPj56Ii--WOI-4" style="edgeStyle=orthogonalEdgeStyle;rounded=0;orthogonalLoop=1;jettySize=auto;html=1;strokeWidth=5;strokeColor=#009900;" parent="sD_uTew6S_SOSZNt0BSz-1" source="fL3wdo_UxPj56Ii--WOI-1" target="sD_uTew6S_SOSZNt0BSz-8" edge="1">
          <mxGeometry relative="1" as="geometry" />
        </mxCell>
        <mxCell id="fL3wdo_UxPj56Ii--WOI-1" value="Proxy" style="rounded=0;whiteSpace=wrap;html=1;verticalAlign=middle;fillColor=#f5f5f5;strokeColor=#666666;fontColor=#333333;" parent="sD_uTew6S_SOSZNt0BSz-1" vertex="1">
          <mxGeometry x="100" y="420" width="110" height="30" as="geometry" />
        </mxCell>
        <mxCell id="fL3wdo_UxPj56Ii--WOI-3" style="edgeStyle=orthogonalEdgeStyle;rounded=0;orthogonalLoop=1;jettySize=auto;html=1;entryX=0.682;entryY=0.011;entryDx=0;entryDy=0;exitX=0.75;exitY=1;exitDx=0;exitDy=0;endArrow=classic;startFill=0;endFill=1;strokeWidth=5;strokeColor=#009900;entryPerimeter=0;" parent="sD_uTew6S_SOSZNt0BSz-1" source="sD_uTew6S_SOSZNt0BSz-7" target="fL3wdo_UxPj56Ii--WOI-1" edge="1">
          <mxGeometry relative="1" as="geometry">
            <Array as="points" />
          </mxGeometry>
        </mxCell>
        <mxCell id="fL3wdo_UxPj56Ii--WOI-6" value="http://&lt;b&gt;localhost:4200/backend&lt;/b&gt;/api/data" style="text;html=1;align=left;verticalAlign=middle;whiteSpace=wrap;rounded=0;fontStyle=2;fontColor=#009900;" parent="sD_uTew6S_SOSZNt0BSz-1" vertex="1">
          <mxGeometry x="210" y="245" width="230" height="30" as="geometry" />
        </mxCell>
        <mxCell id="k3rKJqVZwOSWzDETsV2v-1" value="http://&lt;b&gt;backend:8080&lt;/b&gt;/api/data" style="text;html=1;align=left;verticalAlign=middle;whiteSpace=wrap;rounded=0;fontStyle=2;fontColor=#009900;" parent="sD_uTew6S_SOSZNt0BSz-1" vertex="1">
          <mxGeometry x="340" y="440" width="200" height="30" as="geometry" />
        </mxCell>
        <mxCell id="k3rKJqVZwOSWzDETsV2v-2" value="&lt;b&gt;2&lt;/b&gt;" style="ellipse;whiteSpace=wrap;html=1;aspect=fixed;fillColor=#008a00;strokeColor=none;fontColor=#ffffff;" parent="sD_uTew6S_SOSZNt0BSz-1" vertex="1">
          <mxGeometry x="280" y="405" width="20" height="20" as="geometry" />
        </mxCell>
        <mxCell id="k3rKJqVZwOSWzDETsV2v-3" value="Invocation API backend&amp;nbsp;&lt;div&gt;depuis le front&lt;/div&gt;" style="text;html=1;align=left;verticalAlign=middle;whiteSpace=wrap;rounded=0;fontColor=#009900;" parent="sD_uTew6S_SOSZNt0BSz-1" vertex="1">
          <mxGeometry x="310" y="400" width="210" height="30" as="geometry" />
        </mxCell>
        <mxCell id="kE_iZOzslPdviy4E_gXq-0" style="edgeStyle=orthogonalEdgeStyle;rounded=0;orthogonalLoop=1;jettySize=auto;html=1;entryX=0.75;entryY=0;entryDx=0;entryDy=0;strokeColor=#FF0000;strokeWidth=5;" parent="sD_uTew6S_SOSZNt0BSz-1" target="sD_uTew6S_SOSZNt0BSz-8" edge="1">
          <mxGeometry relative="1" as="geometry">
            <mxPoint x="430" y="160" as="sourcePoint" />
            <mxPoint x="555" y="330" as="targetPoint" />
          </mxGeometry>
        </mxCell>
        <mxCell id="kE_iZOzslPdviy4E_gXq-1" value="&lt;b&gt;API&lt;/b&gt;" style="text;html=1;align=left;verticalAlign=middle;whiteSpace=wrap;rounded=0;fontColor=#FF0000;" parent="sD_uTew6S_SOSZNt0BSz-1" vertex="1">
          <mxGeometry x="580" y="245" width="60" height="30" as="geometry" />
        </mxCell>
        <mxCell id="XXPahouvcOp52BL0uFtV-1" style="edgeStyle=orthogonalEdgeStyle;rounded=0;orthogonalLoop=1;jettySize=auto;html=1;endArrow=none;startFill=0;strokeColor=#FF0000;" edge="1" parent="sD_uTew6S_SOSZNt0BSz-1">
          <mxGeometry relative="1" as="geometry">
            <mxPoint x="590" y="305" as="targetPoint" />
            <mxPoint x="590" y="385" as="sourcePoint" />
          </mxGeometry>
        </mxCell>
        <mxCell id="kE_iZOzslPdviy4E_gXq-3" value="CORS Problem" style="text;html=1;align=right;verticalAlign=middle;whiteSpace=wrap;rounded=0;fontColor=#FF0000;fontSize=17;fontStyle=1" parent="sD_uTew6S_SOSZNt0BSz-1" vertex="1">
          <mxGeometry x="510" y="330" width="60" height="30" as="geometry" />
        </mxCell>
        <mxCell id="kE_iZOzslPdviy4E_gXq-4" value="Le site a été récupéré depuis le domaine&amp;nbsp;&amp;nbsp;&lt;b&gt;http://localhost:4200/&lt;/b&gt;&lt;div&gt;Des ressources de ce site ne peuvent pas être appelée depuis un autre domaine &lt;b&gt;http://localhost:8080/&lt;/b&gt;&lt;/div&gt;" style="text;html=1;align=left;verticalAlign=middle;whiteSpace=wrap;rounded=0;strokeColor=none;fontColor=#FF0000;" parent="sD_uTew6S_SOSZNt0BSz-1" vertex="1">
          <mxGeometry x="600" y="300" width="210" height="90" as="geometry" />
        </mxCell>
        <mxCell id="iZ9we85GNa0nHcIkeqTp-0" value="&lt;b&gt;1&lt;/b&gt;" style="ellipse;whiteSpace=wrap;html=1;aspect=fixed;fillColor=#FF0000;strokeColor=none;fontColor=#ffffff;" parent="sD_uTew6S_SOSZNt0BSz-1" vertex="1">
          <mxGeometry x="550" y="220" width="20" height="20" as="geometry" />
        </mxCell>
        <mxCell id="iZ9we85GNa0nHcIkeqTp-1" value="Invocation API backend&amp;nbsp;&lt;div&gt;directe&lt;/div&gt;" style="text;html=1;align=left;verticalAlign=middle;whiteSpace=wrap;rounded=0;fontColor=#FF0000;" parent="sD_uTew6S_SOSZNt0BSz-1" vertex="1">
          <mxGeometry x="580" y="215" width="190" height="30" as="geometry" />
        </mxCell>
        <mxCell id="iZ9we85GNa0nHcIkeqTp-2" value="&lt;b&gt;API&lt;/b&gt;" style="text;html=1;align=left;verticalAlign=middle;whiteSpace=wrap;rounded=0;fontColor=#009900;" parent="sD_uTew6S_SOSZNt0BSz-1" vertex="1">
          <mxGeometry x="180" y="245" width="60" height="30" as="geometry" />
        </mxCell>
      </root>
    </mxGraphModel>
  </diagram>
</mxfile>
